<svg width="current" height="current" viewBox="0 0 600 900" fill="none" xmlns="http://www.w3.org/2000/svg">
<mask id="path-1-inside-1_188_13471" fill="white">
<path fill-rule="evenodd" clip-rule="evenodd" d="M426.143 572.27C528.805 524.627 600 420.627 600 300C600 134.315 465.685 0 300 0C134.315 0 0 134.315 0 300C0 420.627 71.1946 524.627 173.857 572.27L300 900L426.143 572.27Z"/>
</mask>
<path fill-rule="evenodd" clip-rule="evenodd" d="M426.143 572.27C528.805 524.627 600 420.627 600 300C600 134.315 465.685 0 300 0C134.315 0 0 134.315 0 300C0 420.627 71.1946 524.627 173.857 572.27L300 900L426.143 572.27Z" fill="white"/>
<path d="M426.143 572.27L422.355 564.107L419.052 565.639L417.744 569.037L426.143 572.27ZM173.857 572.27L182.256 569.037L180.948 565.639L177.645 564.107L173.857 572.27ZM300 900L291.601 903.233L300 925.055L308.399 903.233L300 900ZM591 300C591 416.995 521.957 517.883 422.355 564.107L429.932 580.434C535.654 531.37 609 424.26 609 300H591ZM300 9C460.715 9 591 139.285 591 300H609C609 129.344 470.656 -9 300 -9V9ZM9 300C9 139.285 139.285 9 300 9V-9C129.344 -9 -9 129.344 -9 300H9ZM177.645 564.107C78.0427 517.883 9 416.995 9 300H-9C-9 424.26 64.3465 531.37 170.068 580.434L177.645 564.107ZM308.399 896.767L182.256 569.037L165.458 575.503L291.601 903.233L308.399 896.767ZM417.744 569.037L291.601 896.767L308.399 903.233L434.543 575.503L417.744 569.037Z" fill="#BFA85A" mask="url(#path-1-inside-1_188_13471)"/>
<path d="M59.6298 358.203C69.7592 405.722 93.2231 449.278 127.209 483.651C161.195 518.024 204.261 541.755 251.244 552L304 498.589L356.756 552C405.088 541.447 449.24 516.636 483.63 480.704C518.019 444.772 541.101 399.333 549.957 350.133C558.813 300.934 553.045 250.183 533.383 204.299C513.72 158.414 481.046 119.458 439.492 92.3546C397.938 65.2517 349.371 51.2198 299.932 52.0335C250.494 52.8471 202.404 68.4698 161.744 96.9258C121.084 125.382 89.6804 165.393 71.5042 211.9C53.3281 258.407 49.1957 309.321 59.6298 358.203V358.203ZM77.8047 246.285C87.9886 205.891 108.563 168.944 137.438 139.198C166.312 109.451 202.458 87.965 242.201 76.9225C281.945 65.8799 323.871 65.6746 363.719 76.3272C403.567 86.9798 439.916 108.111 469.074 137.573C498.233 167.035 519.16 203.779 529.73 244.071C540.3 284.362 540.137 326.766 529.256 366.972C518.376 407.179 497.165 443.757 467.781 472.988C438.397 502.22 401.885 523.063 361.956 533.401L304 474.893L245.99 533.401C186.043 517.882 134.646 478.915 103.106 425.071C71.5649 371.226 62.4639 306.915 77.8047 246.285Z" fill="#BFA85A"/>
<path d="M267.168 509.844C215.933 500.536 169.999 472.167 138.408 430.323C106.818 388.478 91.8606 336.188 96.4801 283.748C101.1 231.308 124.962 182.516 163.369 146.979C201.776 111.442 251.945 91.733 304 91.733C356.055 91.733 406.225 111.442 444.632 146.979C483.039 182.517 506.901 231.308 511.52 283.748C516.14 336.188 501.182 388.478 469.592 430.323C438.002 472.167 392.068 500.536 340.833 509.844L348.124 517.11C400.635 506.065 447.23 475.718 478.898 431.938C510.567 388.158 525.057 334.056 519.568 280.096C514.079 226.136 489 176.152 449.182 139.811C409.363 103.469 357.634 83.3534 304 83.3534C250.366 83.3534 198.637 103.469 158.819 139.811C119 176.152 93.9214 226.136 88.4323 280.096C82.9432 334.056 97.434 388.158 129.102 431.938C160.77 475.718 207.366 506.065 259.876 517.11L267.168 509.844Z" fill="#BFA85A"/>
<path d="M333.555 576C323.292 584.589 314.852 594.818 308.655 606.179C310.535 612.368 311.92 618.673 312.8 625.045C312.8 625.045 316.918 617.5 316.955 617.5C316.955 606.502 333.555 576 333.555 576ZM287.9 625.045C282.841 612.644 276.532 608.445 263 602.411C275.345 611.69 279.6 636.366 279.6 636.366C279.6 636.366 294.602 642.134 304.5 659C319.109 628.29 293.726 595.48 275.445 576C283.974 595.48 287.9 604.22 287.9 625.045ZM316.955 636.366V647.679L333.555 632.589C333.555 620.056 333.655 607.93 346 598.634C329.153 606.154 316.955 627.535 316.955 636.366Z" fill="#BFA85A"/>
</svg>
