<svg width="current" height="current" viewBox="0 0 600 900" fill="none" xmlns="http://www.w3.org/2000/svg">
<mask id="path-1-inside-1_188_13493" fill="white">
<path fill-rule="evenodd" clip-rule="evenodd" d="M426.143 572.27C528.805 524.627 600 420.627 600 300C600 134.315 465.685 0 300 0C134.315 0 0 134.315 0 300C0 420.627 71.1946 524.627 173.857 572.27L300 900L426.143 572.27Z"/>
</mask>
<path fill-rule="evenodd" clip-rule="evenodd" d="M426.143 572.27C528.805 524.627 600 420.627 600 300C600 134.315 465.685 0 300 0C134.315 0 0 134.315 0 300C0 420.627 71.1946 524.627 173.857 572.27L300 900L426.143 572.27Z" fill="black"/>
<path d="M426.143 572.27L422.355 564.107L419.052 565.639L417.744 569.037L426.143 572.27ZM173.857 572.27L182.256 569.037L180.948 565.639L177.645 564.107L173.857 572.27ZM300 900L291.601 903.233L300 925.055L308.399 903.233L300 900ZM591 300C591 416.995 521.957 517.883 422.355 564.107L429.932 580.434C535.654 531.37 609 424.26 609 300H591ZM300 9C460.715 9 591 139.285 591 300H609C609 129.344 470.656 -9 300 -9V9ZM9 300C9 139.285 139.285 9 300 9V-9C129.344 -9 -9 129.344 -9 300H9ZM177.645 564.107C78.0427 517.883 9 416.995 9 300H-9C-9 424.26 64.3465 531.37 170.068 580.434L177.645 564.107ZM308.399 896.767L182.256 569.037L165.458 575.503L291.601 903.233L308.399 896.767ZM417.744 569.037L291.601 896.767L308.399 903.233L434.543 575.503L417.744 569.037Z" fill="#BFA85A" mask="url(#path-1-inside-1_188_13493)"/>
<path d="M56.6298 358.203C66.7592 405.722 90.2231 449.278 124.209 483.651C158.195 518.024 201.261 541.755 248.244 552L301 498.589L353.756 552C402.088 541.447 446.24 516.636 480.63 480.704C515.019 444.772 538.101 399.333 546.957 350.133C555.813 300.934 550.045 250.183 530.383 204.299C510.72 158.414 478.046 119.458 436.492 92.3546C394.938 65.2517 346.371 51.2198 296.932 52.0335C247.494 52.8471 199.404 68.4698 158.744 96.9258C118.084 125.382 86.6804 165.393 68.5042 211.9C50.3281 258.407 46.1957 309.321 56.6298 358.203V358.203ZM74.8047 246.285C84.9886 205.891 105.563 168.944 134.438 139.198C163.312 109.451 199.458 87.965 239.201 76.9225C278.945 65.8799 320.871 65.6746 360.719 76.3272C400.567 86.9798 436.916 108.111 466.074 137.573C495.233 167.035 516.16 203.779 526.73 244.071C537.3 284.362 537.137 326.766 526.256 366.972C515.376 407.179 494.165 443.757 464.781 472.988C435.397 502.22 398.885 523.063 358.956 533.401L301 474.893L242.99 533.401C183.043 517.882 131.646 478.915 100.106 425.071C68.5649 371.226 59.4639 306.915 74.8047 246.285Z" fill="#BFA85A"/>
<path d="M264.168 509.844C212.933 500.536 166.998 472.167 135.408 430.323C103.818 388.478 88.8604 336.188 93.48 283.748C98.0996 231.308 121.962 182.516 160.369 146.979C198.776 111.442 248.945 91.733 301 91.733C353.055 91.733 403.225 111.442 441.632 146.979C480.039 182.517 503.901 231.308 508.52 283.748C513.14 336.188 498.182 388.478 466.592 430.323C435.002 472.167 389.068 500.536 337.833 509.844L345.124 517.11C397.635 506.065 444.23 475.718 475.898 431.938C507.566 388.158 522.057 334.056 516.568 280.096C511.079 226.136 486 176.152 446.182 139.811C406.363 103.469 354.634 83.3534 301 83.3534C247.366 83.3534 195.637 103.469 155.819 139.811C116 176.152 90.9213 226.136 85.4322 280.096C79.9431 334.056 94.4339 388.158 126.102 431.938C157.77 475.718 204.366 506.065 256.876 517.11L264.168 509.844Z" fill="#BFA85A"/>
<path d="M251.784 620.473H349.596L359.38 610.69L349.596 600.906H251.784L242 610.69L251.784 620.473Z" fill="#BFA85A"/>
<path d="M320.251 630.251H339.818L300.69 669.38L261.561 630.251H281.129L300.69 649.813L320.251 630.251ZM339.818 591.129L320.251 591.129L300.69 571.567L281.129 591.129L261.561 591.129L300.69 552L339.818 591.129Z" fill="#BFA85A" fill-opacity="0.3"/>
</svg>
