<svg width="current" height="current" viewBox="0 0 600 900" fill="none" xmlns="http://www.w3.org/2000/svg">
<mask id="path-1-inside-1_188_13514" fill="white">
<path fill-rule="evenodd" clip-rule="evenodd" d="M426.143 572.27C528.805 524.627 600 420.627 600 300C600 134.315 465.685 0 300 0C134.315 0 0 134.315 0 300C0 420.627 71.1946 524.627 173.857 572.27L300 900L426.143 572.27Z"/>
</mask>
<path fill-rule="evenodd" clip-rule="evenodd" d="M426.143 572.27C528.805 524.627 600 420.627 600 300C600 134.315 465.685 0 300 0C134.315 0 0 134.315 0 300C0 420.627 71.1946 524.627 173.857 572.27L300 900L426.143 572.27Z" fill="black"/>
<path d="M426.143 572.27L422.355 564.107L419.052 565.639L417.744 569.037L426.143 572.27ZM173.857 572.27L182.256 569.037L180.948 565.639L177.645 564.107L173.857 572.27ZM300 900L291.601 903.233L300 925.055L308.399 903.233L300 900ZM591 300C591 416.995 521.957 517.883 422.355 564.107L429.932 580.434C535.654 531.37 609 424.26 609 300H591ZM300 9C460.715 9 591 139.285 591 300H609C609 129.344 470.656 -9 300 -9V9ZM9 300C9 139.285 139.285 9 300 9V-9C129.344 -9 -9 129.344 -9 300H9ZM177.645 564.107C78.0427 517.883 9 416.995 9 300H-9C-9 424.26 64.3465 531.37 170.068 580.434L177.645 564.107ZM308.399 896.767L182.256 569.037L165.458 575.503L291.601 903.233L308.399 896.767ZM417.744 569.037L291.601 896.767L308.399 903.233L434.543 575.503L417.744 569.037Z" fill="#BFA85A" mask="url(#path-1-inside-1_188_13514)"/>
<path d="M54.6298 358.203C64.7592 405.722 88.2231 449.278 122.209 483.651C156.195 518.024 199.261 541.755 246.244 552L299 498.589L351.756 552C400.088 541.447 444.24 516.636 478.63 480.704C513.019 444.772 536.101 399.333 544.957 350.133C553.813 300.934 548.045 250.183 528.383 204.299C508.72 158.414 476.046 119.458 434.492 92.3546C392.938 65.2517 344.371 51.2198 294.932 52.0335C245.494 52.8471 197.404 68.4698 156.744 96.9258C116.084 125.382 84.6804 165.393 66.5042 211.9C48.3281 258.407 44.1957 309.321 54.6298 358.203V358.203ZM72.8047 246.285C82.9886 205.891 103.563 168.944 132.438 139.198C161.312 109.451 197.458 87.965 237.201 76.9225C276.945 65.8799 318.871 65.6746 358.719 76.3272C398.567 86.9798 434.916 108.111 464.074 137.573C493.233 167.035 514.16 203.779 524.73 244.071C535.3 284.362 535.137 326.766 524.256 366.972C513.376 407.179 492.165 443.757 462.781 472.988C433.397 502.22 396.885 523.063 356.956 533.401L299 474.893L240.99 533.401C181.043 517.882 129.646 478.915 98.1055 425.071C66.5649 371.226 57.4639 306.915 72.8047 246.285Z" fill="#BFA85A"/>
<path d="M262.168 509.844C210.933 500.536 164.998 472.167 133.408 430.323C101.818 388.478 86.8604 336.188 91.48 283.748C96.0996 231.308 119.962 182.516 158.369 146.979C196.776 111.442 246.945 91.733 299 91.733C351.055 91.733 401.225 111.442 439.632 146.979C478.039 182.517 501.901 231.308 506.52 283.748C511.14 336.188 496.182 388.478 464.592 430.323C433.002 472.167 387.068 500.536 335.833 509.844L343.124 517.11C395.635 506.065 442.23 475.718 473.898 431.938C505.566 388.158 520.057 334.056 514.568 280.096C509.079 226.136 484 176.152 444.182 139.811C404.363 103.469 352.634 83.3534 299 83.3534C245.366 83.3534 193.637 103.469 153.819 139.811C114 176.152 88.9213 226.136 83.4322 280.096C77.9431 334.056 92.4339 388.158 124.102 431.938C155.77 475.718 202.366 506.065 254.876 517.11L262.168 509.844Z" fill="#BFA85A"/>
<path d="M334.576 576C334.576 599.682 312.54 607.776 312.54 607.776L309.018 627.086C308.779 627.753 308.639 628.451 308.602 629.159C308.661 630.717 309.322 632.192 310.445 633.273C311.569 634.355 313.067 634.959 314.627 634.959C316.186 634.959 317.685 634.355 318.809 633.273C319.932 632.192 320.593 630.717 320.652 629.159C320.666 627.75 320.168 626.384 319.251 625.315C318.333 624.246 317.058 623.546 315.664 623.347C321.485 613.371 329.796 618.142 329.796 618.142C331.036 616.893 332.077 615.644 333.119 614.611L326.881 612.113H334.984C337.173 609.157 338.858 605.859 339.972 602.354L331.626 599.057H340.562C341.278 595.01 341.114 590.855 340.082 586.877C339.049 582.898 337.171 579.188 334.576 576M286.792 607.776C286.792 607.776 264.765 599.682 264.765 576C264.765 576 256.246 585.343 258.328 598.641H267.263L258.952 601.929C259.818 604.634 261.003 607.226 262.483 609.649H272.026L264.557 612.764C265.902 614.647 267.434 616.391 269.129 617.968C269.129 617.968 277.44 613.189 283.261 623.173C281.866 623.373 280.591 624.072 279.674 625.142C278.756 626.211 278.258 627.577 278.273 628.985C278.251 629.879 278.428 630.766 278.791 631.582C279.155 632.399 279.695 633.124 280.373 633.706C281.051 634.288 281.85 634.712 282.712 634.947C283.575 635.183 284.478 635.224 285.358 635.067C286.238 634.91 287.072 634.56 287.8 634.041C288.527 633.522 289.131 632.848 289.566 632.068C290.001 631.287 290.258 630.42 290.317 629.528C290.375 628.637 290.235 627.743 289.906 626.912L286.792 607.776ZM295.311 593.861L297.593 588.049H301.748L304.03 594.07L299.692 606.119L295.311 593.861ZM294.444 579.982L288.371 593.861L297.176 615.878V636.446L292.839 650.325L297.176 659H302.13L306.468 650.325L302.13 636.446V615.878L310.892 593.861L304.819 579.982H294.444Z" fill="#BFA85A"/>
</svg>
