<svg width="current" height="current" viewBox="0 0 600 900" fill="none" xmlns="http://www.w3.org/2000/svg">
<mask id="path-1-inside-1_188_13473" fill="white">
<path fill-rule="evenodd" clip-rule="evenodd" d="M426.143 572.27C528.805 524.627 600 420.627 600 300C600 134.315 465.685 0 300 0C134.315 0 0 134.315 0 300C0 420.627 71.1946 524.627 173.857 572.27L300 900L426.143 572.27Z"/>
</mask>
<path fill-rule="evenodd" clip-rule="evenodd" d="M426.143 572.27C528.805 524.627 600 420.627 600 300C600 134.315 465.685 0 300 0C134.315 0 0 134.315 0 300C0 420.627 71.1946 524.627 173.857 572.27L300 900L426.143 572.27Z" fill="black"/>
<path d="M426.143 572.27L422.355 564.107L419.052 565.639L417.744 569.037L426.143 572.27ZM173.857 572.27L182.256 569.037L180.948 565.639L177.645 564.107L173.857 572.27ZM300 900L291.601 903.233L300 925.055L308.399 903.233L300 900ZM591 300C591 416.995 521.957 517.883 422.355 564.107L429.932 580.434C535.654 531.37 609 424.26 609 300H591ZM300 9C460.715 9 591 139.285 591 300H609C609 129.344 470.656 -9 300 -9V9ZM9 300C9 139.285 139.285 9 300 9V-9C129.344 -9 -9 129.344 -9 300H9ZM177.645 564.107C78.0427 517.883 9 416.995 9 300H-9C-9 424.26 64.3465 531.37 170.068 580.434L177.645 564.107ZM308.399 896.767L182.256 569.037L165.458 575.503L291.601 903.233L308.399 896.767ZM417.744 569.037L291.601 896.767L308.399 903.233L434.543 575.503L417.744 569.037Z" fill="#BFA85A" mask="url(#path-1-inside-1_188_13473)"/>
<path d="M55.6298 358.203C65.7592 405.722 89.2231 449.278 123.209 483.651C157.195 518.024 200.261 541.755 247.244 552L300 498.589L352.756 552C401.088 541.447 445.24 516.636 479.63 480.704C514.019 444.772 537.101 399.333 545.957 350.133C554.813 300.934 549.045 250.183 529.383 204.299C509.72 158.414 477.046 119.458 435.492 92.3546C393.938 65.2517 345.371 51.2198 295.932 52.0335C246.494 52.8471 198.404 68.4698 157.744 96.9258C117.084 125.382 85.6804 165.393 67.5042 211.9C49.3281 258.407 45.1957 309.321 55.6298 358.203V358.203ZM73.8047 246.285C83.9886 205.891 104.563 168.944 133.438 139.198C162.312 109.451 198.458 87.965 238.201 76.9225C277.945 65.8799 319.871 65.6746 359.719 76.3272C399.567 86.9798 435.916 108.111 465.074 137.573C494.233 167.035 515.16 203.779 525.73 244.071C536.3 284.362 536.137 326.766 525.256 366.972C514.376 407.179 493.165 443.757 463.781 472.988C434.397 502.22 397.885 523.063 357.956 533.401L300 474.893L241.99 533.401C182.043 517.882 130.646 478.915 99.1055 425.071C67.5649 371.226 58.4639 306.915 73.8047 246.285Z" fill="#BFA85A"/>
<path d="M263.168 509.844C211.933 500.536 165.999 472.167 134.408 430.323C102.818 388.478 87.8606 336.188 92.4801 283.748C97.0997 231.308 120.962 182.516 159.369 146.979C197.776 111.442 247.945 91.733 300 91.733C352.055 91.733 402.225 111.442 440.632 146.979C479.039 182.517 502.901 231.308 507.52 283.748C512.14 336.188 497.182 388.478 465.592 430.323C434.002 472.167 388.068 500.536 336.833 509.844L344.124 517.11C396.635 506.065 443.23 475.718 474.898 431.938C506.567 388.158 521.057 334.056 515.568 280.096C510.079 226.136 485 176.152 445.182 139.811C405.363 103.469 353.634 83.3534 300 83.3534C246.366 83.3534 194.637 103.469 154.819 139.811C115 176.152 89.9214 226.136 84.4323 280.096C78.9432 334.056 93.434 388.158 125.102 431.938C156.77 475.718 203.366 506.065 255.876 517.11L263.168 509.844Z" fill="#BFA85A"/>
<path d="M247.52 617.21L267.087 617.21L299.69 649.813L332.292 617.21L351.859 617.21L299.69 669.38L247.52 617.21Z" fill="#BFA85A" fill-opacity="0.3"/>
<path d="M299.69 597.708L286.637 610.76L299.69 623.813L312.742 610.76L299.69 597.708Z" fill="#BFA85A" fill-opacity="0.3"/>
<path d="M299.69 552L247.52 604.169L267.088 604.169L299.69 571.567L332.292 604.169L351.859 604.169L299.69 552Z" fill="#BFA85A"/>
</svg>
