<svg width="500" height="300" viewBox="0 0 5628 376" fill="none" xmlns="http://www.w3.org/2000/svg">
<path fill-rule="evenodd" clip-rule="evenodd" d="M0 25H980.776C983.529 35.1096 988.109 48.2302 995.721 64.0951C1014.35 102.915 1051.06 158.011 1123.36 225.63C1178.67 277.353 1245.18 302.97 1297.38 315.706C1323.55 322.09 1346.3 325.284 1362.56 326.885C1370.7 327.686 1377.23 328.09 1381.76 328.293C1384.02 328.395 1385.79 328.447 1387.01 328.473C1387.62 328.486 1388.1 328.493 1388.43 328.496C1388.6 328.498 1388.73 328.499 1388.83 328.499L1388.94 328.5L1388.98 328.5L1388.99 328.5C1389 328.5 1389 328.5 1389 316C1389 303.5 1389 303.5 1389.01 303.5H1389.01L1388.96 303.5L1388.8 303.499L1388.7 303.498C1388.45 303.495 1388.07 303.49 1387.55 303.479C1386.51 303.456 1384.94 303.411 1382.88 303.318C1378.75 303.133 1372.67 302.759 1365.01 302.005C1349.69 300.497 1328.12 297.473 1303.31 291.419C1253.56 279.28 1191.52 255.147 1140.44 207.37C1069.99 141.489 1035.32 88.8353 1018.26 53.2799C1009.73 35.5007 1005.58 21.9582 1003.56 13.1173C1002.56 8.69373 1002.08 5.4357 1001.85 3.40037C1001.74 2.38227 1001.69 1.66862 1001.66 1.26656C1001.65 1.06547 1001.65 0.942151 1001.65 0.897478L1001.65 0.929922L1001.65 0.961266L1001.65 0.979726C1001.65 0.984817 1001.65 0.989989 1000 0.993835V0H0V25ZM4647.22 25H5628V0H4628V0.993835C4626.35 0.989989 4626.35 0.984817 4626.35 0.979726V0.961266V0.929922L4626.35 0.90855C4626.35 0.960619 4626.35 1.08019 4626.34 1.26656C4626.31 1.66862 4626.26 2.38227 4626.15 3.40037C4625.92 5.4357 4625.44 8.69373 4624.44 13.1173C4622.42 21.9582 4618.27 35.5007 4609.74 53.2799C4592.68 88.8353 4558.01 141.489 4487.56 207.37C4436.48 255.147 4374.44 279.28 4324.69 291.419C4299.88 297.473 4278.31 300.497 4262.99 302.005C4255.33 302.759 4249.25 303.133 4245.12 303.318C4243.06 303.411 4241.49 303.456 4240.45 303.479C4240.18 303.484 4239.94 303.489 4239.74 303.492L4239.3 303.498L4239.04 303.5L4238.99 303.5C4239 303.5 4239 303.5 4239 316C4239 328.5 4239 328.5 4239.01 328.5L4239.02 328.5L4239.06 328.5L4239.17 328.499L4239.57 328.496C4239.9 328.493 4240.38 328.486 4240.99 328.473C4242.21 328.447 4243.98 328.395 4246.24 328.293C4250.77 328.09 4257.3 327.686 4265.44 326.885C4281.7 325.284 4304.45 322.09 4330.62 315.706C4382.82 302.97 4449.33 277.353 4504.64 225.63C4576.94 158.011 4613.65 102.915 4632.28 64.0951C4639.89 48.2302 4644.47 35.1096 4647.22 25ZM2814 375L1345 375V367.467C1345 375.5 1344.99 375.5 1344.99 375.5L1344.98 375.5L1344.94 375.5L1344.83 375.499C1344.73 375.499 1344.6 375.498 1344.44 375.496C1344.33 375.495 1344.21 375.494 1344.07 375.492C1343.79 375.488 1343.43 375.482 1343.02 375.473C1341.8 375.448 1340.03 375.397 1337.77 375.297C1333.24 375.098 1326.72 374.702 1318.59 373.917C1302.34 372.348 1279.59 369.215 1253.44 362.956C1201.27 350.47 1134.76 325.35 1079.45 274.606C1007.14 208.271 970.41 154.204 951.762 116.081C942.439 97.0202 937.654 81.9824 935.203 71.4471C933.978 66.1826 933.339 62.0541 933.006 59.1224C932.84 57.6571 932.75 56.4922 932.702 55.6356C932.678 55.2073 932.664 54.8562 932.657 54.5832C932.653 54.4467 932.651 54.3298 932.649 54.2325C932.649 54.1839 932.648 54.1402 932.648 54.1014L932.648 54.047L932.647 54.0225C932.647 54.0111 932.647 54 945.147 54C957.647 54 957.647 53.9895 957.647 53.9793L957.647 53.9604L957.647 53.928L957.647 53.8863C957.648 53.9257 957.652 54.0423 957.663 54.2351C957.684 54.6207 957.734 55.3119 957.846 56.3018C958.071 58.2806 958.547 61.4594 959.553 65.7822C961.563 74.4214 965.7 87.6781 974.22 105.096C991.259 139.931 1025.91 191.562 1096.35 256.184C1147.43 303.045 1209.47 326.728 1259.26 338.643C1284.08 344.584 1305.66 347.552 1320.99 349.033C1328.65 349.773 1334.74 350.14 1338.87 350.321C1340.93 350.412 1342.51 350.457 1343.55 350.479C1344.06 350.49 1344.45 350.495 1344.69 350.498L1344.84 350.499L1344.95 350.5L1345 350.5V350L2814 350L4283 350V350.5L4283.04 350.5L4283.08 350.5L4283.3 350.498C4283.47 350.496 4283.72 350.493 4284.03 350.487L4284.45 350.478L4284.91 350.467C4285.19 350.461 4285.49 350.452 4285.82 350.442C4286.22 350.43 4286.66 350.415 4287.14 350.398C4287.43 350.387 4287.75 350.374 4288.08 350.361L4288.62 350.338L4289.11 350.316C4293.24 350.128 4299.31 349.748 4306.97 348.983C4322.28 347.451 4343.84 344.38 4368.65 338.232C4418.37 325.907 4480.4 301.4 4531.49 252.858C4601.94 185.927 4636.63 132.42 4653.71 96.2646C4662.25 78.1845 4666.4 64.4038 4668.43 55.3951C4669.44 50.8878 4669.92 47.5639 4670.15 45.4818C4670.26 44.4403 4670.31 43.7081 4670.34 43.2924L4670.35 43.0328V43.0206L4670.35 42.9801C4670.35 42.9899 4670.35 43 4682.85 43C4695.35 43 4695.35 43.0107 4695.35 43.0218V43.0456L4695.35 43.099L4695.35 43.2287L4695.34 43.5796C4695.34 43.8541 4695.32 44.2095 4695.3 44.6449C4695.25 45.5156 4695.16 46.7055 4695 48.2067C4694.67 51.2099 4694.04 55.4535 4692.82 60.8747C4690.38 71.7232 4685.62 87.2441 4676.31 106.942C4657.7 146.341 4621.01 202.295 4548.71 270.983C4493.41 323.521 4426.89 349.554 4374.66 362.498C4348.49 368.985 4325.72 372.232 4309.45 373.859C4301.31 374.673 4294.79 375.083 4290.25 375.29C4287.99 375.393 4286.22 375.446 4284.99 375.472C4284.38 375.486 4283.9 375.493 4283.57 375.496L4283.18 375.499L4283.06 375.5L4283.02 375.5H4283.01C4283.01 375.5 4283 375.5 4283 368.806V375L2814 375Z" fill="#BFA85A"/>
</svg>
