<svg width="250" height="250" viewBox="0 0 2560 2530" fill="none" xmlns="http://www.w3.org/2000/svg">
<path fill-rule="evenodd" clip-rule="evenodd" d="M1280 30C597.928 30 45 582.928 45 1265C45 1947.07 597.928 2500 1280 2500C1962.07 2500 2515 1947.07 2515 1265C2515 582.928 1962.07 30 1280 30ZM15 1265C15 566.36 581.36 0 1280 0C1978.64 0 2545 566.36 2545 1265C2545 1963.64 1978.64 2530 1280 2530C581.36 2530 15 1963.64 15 1265ZM30 15L630 15.0001V45.0001L30 45L30 615H0L2.62268e-05 15L30 15ZM30 2515H630V2485H30L30 1915H0L2.62268e-05 2515H30ZM2530 2515H1930V2485H2530V1915H2560V2515H2530ZM2530 15L1930 15.0001V45.0001L2530 45V615H2560V15L2530 15Z" fill="#BFA85A"/>
</svg>
