<svg width="500" height="500" viewBox="0 0 5503 5502" fill="none" xmlns="http://www.w3.org/2000/svg">
<circle cx="2751" cy="2751" r="2485" stroke="#BFA85A" stroke-width="30"/>
<path d="M666.056 1762.22C666.056 1762.22 514.295 2127.14 487.558 2590.78C460.821 3054.42 566.384 3490.61 566.384 3490.61" stroke="#BFA85A" stroke-width="30"/>
<line y1="-15" x2="197.627" y2="-15" transform="matrix(0.988041 -0.154189 0.260719 0.965415 465.825 1812.56)" stroke="#BFA85A" stroke-width="30"/>
<line y1="-15" x2="197.627" y2="-15" transform="matrix(-0.963767 -0.266745 -0.369967 0.929045 554.414 3492.96)" stroke="#BFA85A" stroke-width="30"/>
<path d="M2332.57 478.146C2332.57 478.146 1947.37 566.577 1554.43 814.118C1161.49 1061.66 867.74 1400.95 867.74 1400.95" stroke="#BFA85A" stroke-width="30"/>
<line y1="-15" x2="197.627" y2="-15" transform="matrix(0.699416 0.714715 -0.634419 0.77299 2175.29 344.397)" stroke="#BFA85A" stroke-width="30"/>
<line y1="-15" x2="197.627" y2="-15" transform="matrix(-0.342672 -0.939455 -0.971148 0.238479 858.879 1392.57)" stroke="#BFA85A" stroke-width="30"/>
<path d="M3173.71 478.146C3173.71 478.146 3558.91 566.577 3951.85 814.118C4344.78 1061.66 4638.54 1400.95 4638.54 1400.95" stroke="#BFA85A" stroke-width="30"/>
<line y1="-15" x2="197.627" y2="-15" transform="matrix(-0.699416 0.714715 0.634419 0.77299 3330.99 344.397)" stroke="#BFA85A" stroke-width="30"/>
<line y1="-15" x2="197.627" y2="-15" transform="matrix(0.342672 -0.939455 0.971148 0.238479 4647.4 1392.57)" stroke="#BFA85A" stroke-width="30"/>
<path d="M2332.57 5015.27C2332.57 5015.27 1947.37 4926.84 1554.43 4679.3C1161.49 4431.76 867.74 4092.46 867.74 4092.46" stroke="#BFA85A" stroke-width="30"/>
<line y1="-15" x2="197.627" y2="-15" transform="matrix(0.699416 -0.714715 -0.634419 -0.77299 2175.29 5149.02)" stroke="#BFA85A" stroke-width="30"/>
<line y1="-15" x2="197.627" y2="-15" transform="matrix(-0.342672 0.939455 -0.971148 -0.238479 858.879 4100.84)" stroke="#BFA85A" stroke-width="30"/>
<path d="M3173.71 5015.27C3173.71 5015.27 3558.91 4926.84 3951.85 4679.3C4344.78 4431.76 4638.54 4092.46 4638.54 4092.46" stroke="#BFA85A" stroke-width="30"/>
<line y1="-15" x2="197.627" y2="-15" transform="matrix(-0.699416 -0.714715 0.634419 -0.77299 3330.99 5149.02)" stroke="#BFA85A" stroke-width="30"/>
<line y1="-15" x2="197.627" y2="-15" transform="matrix(0.342672 0.939455 0.971148 -0.238479 4647.4 4100.84)" stroke="#BFA85A" stroke-width="30"/>
<path d="M4843.81 1752.22C4843.81 1752.22 4995.57 2117.14 5022.31 2580.78C5049.04 3044.42 4943.48 3480.61 4943.48 3480.61" stroke="#BFA85A" stroke-width="30"/>
<line y1="-15" x2="197.627" y2="-15" transform="matrix(-0.988041 -0.154189 -0.260719 0.965415 5044.04 1802.56)" stroke="#BFA85A" stroke-width="30"/>
<line y1="-15" x2="197.627" y2="-15" transform="matrix(0.963767 -0.266745 0.369967 0.929045 4955.45 3482.96)" stroke="#BFA85A" stroke-width="30"/>
<line x1="2758.5" y1="-0.000243831" x2="2758.5" y2="251" stroke="#BFA85A" stroke-width="15"/>
<line x1="2758.5" y1="5251" x2="2758.5" y2="5502" stroke="#BFA85A" stroke-width="15"/>
<line x1="2662.49" y1="1.41379" x2="2671.25" y2="252.261" stroke="#BFA85A" stroke-width="15"/>
<line x1="2845.75" y1="5249.22" x2="2854.51" y2="5500.06" stroke="#BFA85A" stroke-width="15"/>
<line x1="2566.58" y1="6.178" x2="2584.09" y2="256.567" stroke="#BFA85A" stroke-width="15"/>
<line x1="2932.88" y1="5244.39" x2="2950.39" y2="5494.78" stroke="#BFA85A" stroke-width="15"/>
<line x1="2470.9" y1="14.286" x2="2497.14" y2="263.911" stroke="#BFA85A" stroke-width="15"/>
<line x1="3019.78" y1="5236.52" x2="3046.02" y2="5486.15" stroke="#BFA85A" stroke-width="15"/>
<line x1="2375.56" y1="25.7284" x2="2410.5" y2="274.286" stroke="#BFA85A" stroke-width="15"/>
<line x1="3106.36" y1="5225.63" x2="3141.29" y2="5474.18" stroke="#BFA85A" stroke-width="15"/>
<line x1="2280.68" y1="40.4912" x2="2324.27" y2="287.678" stroke="#BFA85A" stroke-width="15"/>
<line x1="3192.51" y1="5211.72" x2="3236.1" y2="5458.9" stroke="#BFA85A" stroke-width="15"/>
<line x1="2186.37" y1="58.5563" x2="2238.56" y2="304.071" stroke="#BFA85A" stroke-width="15"/>
<line x1="3278.12" y1="5194.81" x2="3330.3" y2="5440.32" stroke="#BFA85A" stroke-width="15"/>
<line x1="2092.75" y1="79.9018" x2="2153.47" y2="323.446" stroke="#BFA85A" stroke-width="15"/>
<line x1="3363.08" y1="5174.92" x2="3423.81" y2="5418.47" stroke="#BFA85A" stroke-width="15"/>
<line x1="1999.93" y1="104.502" x2="2069.12" y2="345.778" stroke="#BFA85A" stroke-width="15"/>
<line x1="3447.31" y1="5152.09" x2="3516.49" y2="5393.36" stroke="#BFA85A" stroke-width="15"/>
<line x1="1908.03" y1="132.326" x2="1985.59" y2="371.041" stroke="#BFA85A" stroke-width="15"/>
<line x1="3530.68" y1="5126.32" x2="3608.24" y2="5365.04" stroke="#BFA85A" stroke-width="15"/>
<line x1="1817.15" y1="163.34" x2="1903" y2="399.203" stroke="#BFA85A" stroke-width="15"/>
<line x1="3613.1" y1="5097.67" x2="3698.95" y2="5333.53" stroke="#BFA85A" stroke-width="15"/>
<line x1="1727.42" y1="197.507" x2="1821.44" y2="430.23" stroke="#BFA85A" stroke-width="15"/>
<line x1="3694.47" y1="5066.15" x2="3788.5" y2="5298.87" stroke="#BFA85A" stroke-width="15"/>
<line x1="1638.92" y1="234.786" x2="1741.01" y2="464.086" stroke="#BFA85A" stroke-width="15"/>
<line x1="3774.7" y1="5031.81" x2="3876.79" y2="5261.11" stroke="#BFA85A" stroke-width="15"/>
<line x1="1551.79" y1="275.129" x2="1661.82" y2="500.727" stroke="#BFA85A" stroke-width="15"/>
<line x1="3853.67" y1="4994.7" x2="3963.7" y2="5220.29" stroke="#BFA85A" stroke-width="15"/>
<line x1="1466.11" y1="318.49" x2="1583.95" y2="540.11" stroke="#BFA85A" stroke-width="15"/>
<line x1="3931.3" y1="4954.85" x2="4049.14" y2="5176.47" stroke="#BFA85A" stroke-width="15"/>
<line x1="1382" y1="364.814" x2="1507.5" y2="582.187" stroke="#BFA85A" stroke-width="15"/>
<line x1="4007.5" y1="4912.31" x2="4133" y2="5129.69" stroke="#BFA85A" stroke-width="15"/>
<line x1="1299.55" y1="414.045" x2="1432.56" y2="626.905" stroke="#BFA85A" stroke-width="15"/>
<line x1="4082.16" y1="4867.15" x2="4215.17" y2="5080.01" stroke="#BFA85A" stroke-width="15"/>
<line x1="1218.88" y1="466.124" x2="1359.24" y2="674.212" stroke="#BFA85A" stroke-width="15"/>
<line x1="4155.2" y1="4819.4" x2="4295.56" y2="5027.49" stroke="#BFA85A" stroke-width="15"/>
<line x1="1140.07" y1="520.986" x2="1287.61" y2="724.049" stroke="#BFA85A" stroke-width="15"/>
<line x1="4226.53" y1="4769.13" x2="4374.07" y2="4972.2" stroke="#BFA85A" stroke-width="15"/>
<line x1="1063.23" y1="578.564" x2="1217.76" y2="776.355" stroke="#BFA85A" stroke-width="15"/>
<line x1="4296.07" y1="4716.41" x2="4450.6" y2="4914.2" stroke="#BFA85A" stroke-width="15"/>
<line x1="988.44" y1="638.79" x2="1149.78" y2="831.067" stroke="#BFA85A" stroke-width="15"/>
<line x1="4363.72" y1="4661.29" x2="4525.06" y2="4853.57" stroke="#BFA85A" stroke-width="15"/>
<line x1="915.8" y1="701.589" x2="1083.75" y2="888.118" stroke="#BFA85A" stroke-width="15"/>
<line x1="4429.4" y1="4603.84" x2="4597.36" y2="4790.37" stroke="#BFA85A" stroke-width="15"/>
<line x1="845.393" y1="766.885" x2="1019.75" y2="947.44" stroke="#BFA85A" stroke-width="15"/>
<line x1="4493.04" y1="4544.14" x2="4667.4" y2="4724.69" stroke="#BFA85A" stroke-width="15"/>
<line x1="777.309" y1="834.6" x2="957.863" y2="1008.96" stroke="#BFA85A" stroke-width="15"/>
<line x1="4554.56" y1="4482.25" x2="4735.12" y2="4656.61" stroke="#BFA85A" stroke-width="15"/>
<line x1="711.633" y1="904.648" x2="898.162" y2="1072.6" stroke="#BFA85A" stroke-width="15"/>
<line x1="4613.89" y1="4418.25" x2="4800.42" y2="4586.2" stroke="#BFA85A" stroke-width="15"/>
<line x1="648.438" y1="976.946" x2="840.715" y2="1138.29" stroke="#BFA85A" stroke-width="15"/>
<line x1="4670.94" y1="4352.22" x2="4863.21" y2="4513.56" stroke="#BFA85A" stroke-width="15"/>
<line x1="587.806" y1="1051.4" x2="785.597" y2="1205.94" stroke="#BFA85A" stroke-width="15"/>
<line x1="4725.65" y1="4284.24" x2="4923.44" y2="4438.77" stroke="#BFA85A" stroke-width="15"/>
<line x1="529.809" y1="1127.93" x2="732.872" y2="1275.47" stroke="#BFA85A" stroke-width="15"/>
<line x1="4777.96" y1="4214.39" x2="4981.02" y2="4361.93" stroke="#BFA85A" stroke-width="15"/>
<line x1="474.518" y1="1206.44" x2="682.607" y2="1346.8" stroke="#BFA85A" stroke-width="15"/>
<line x1="4827.79" y1="4142.76" x2="5035.88" y2="4283.12" stroke="#BFA85A" stroke-width="15"/>
<line x1="422.001" y1="1286.83" x2="634.861" y2="1419.84" stroke="#BFA85A" stroke-width="15"/>
<line x1="4875.1" y1="4069.44" x2="5087.96" y2="4202.45" stroke="#BFA85A" stroke-width="15"/>
<line x1="372.32" y1="1369" x2="589.693" y2="1494.5" stroke="#BFA85A" stroke-width="15"/>
<line x1="4919.82" y1="3994.5" x2="5137.19" y2="4120" stroke="#BFA85A" stroke-width="15"/>
<line x1="325.538" y1="1452.86" x2="547.157" y2="1570.7" stroke="#BFA85A" stroke-width="15"/>
<line x1="4961.9" y1="3918.06" x2="5183.51" y2="4035.89" stroke="#BFA85A" stroke-width="15"/>
<line x1="281.708" y1="1538.3" x2="507.305" y2="1648.34" stroke="#BFA85A" stroke-width="15"/>
<line x1="5001.28" y1="3840.19" x2="5226.87" y2="3950.22" stroke="#BFA85A" stroke-width="15"/>
<line x1="240.89" y1="1625.22" x2="470.19" y2="1727.31" stroke="#BFA85A" stroke-width="15"/>
<line x1="5037.92" y1="3760.99" x2="5267.22" y2="3863.09" stroke="#BFA85A" stroke-width="15"/>
<line x1="203.13" y1="1713.51" x2="435.853" y2="1807.53" stroke="#BFA85A" stroke-width="15"/>
<line x1="5071.77" y1="3680.57" x2="5304.5" y2="3774.59" stroke="#BFA85A" stroke-width="15"/>
<line x1="168.473" y1="1803.06" x2="404.336" y2="1888.9" stroke="#BFA85A" stroke-width="15"/>
<line x1="5102.8" y1="3599.01" x2="5338.66" y2="3684.85" stroke="#BFA85A" stroke-width="15"/>
<line x1="136.964" y1="1893.76" x2="375.679" y2="1971.33" stroke="#BFA85A" stroke-width="15"/>
<line x1="5130.96" y1="3516.41" x2="5369.68" y2="3593.98" stroke="#BFA85A" stroke-width="15"/>
<line x1="108.64" y1="1985.51" x2="349.916" y2="2054.7" stroke="#BFA85A" stroke-width="15"/>
<line x1="5156.23" y1="3432.89" x2="5397.5" y2="3502.07" stroke="#BFA85A" stroke-width="15"/>
<line x1="83.5351" y1="2078.2" x2="327.079" y2="2138.92" stroke="#BFA85A" stroke-width="15"/>
<line x1="5178.56" y1="3348.53" x2="5422.1" y2="3409.25" stroke="#BFA85A" stroke-width="15"/>
<line x1="61.6785" y1="2171.7" x2="307.194" y2="2223.89" stroke="#BFA85A" stroke-width="15"/>
<line x1="5197.93" y1="3263.45" x2="5443.45" y2="3315.63" stroke="#BFA85A" stroke-width="15"/>
<line x1="43.0992" y1="2265.91" x2="290.286" y2="2309.5" stroke="#BFA85A" stroke-width="15"/>
<line x1="5214.32" y1="3177.74" x2="5461.51" y2="3221.32" stroke="#BFA85A" stroke-width="15"/>
<line x1="27.8192" y1="2360.71" x2="276.376" y2="2395.64" stroke="#BFA85A" stroke-width="15"/>
<line x1="5227.72" y1="3091.51" x2="5476.27" y2="3126.44" stroke="#BFA85A" stroke-width="15"/>
<line x1="15.8582" y1="2455.99" x2="265.483" y2="2482.22" stroke="#BFA85A" stroke-width="15"/>
<line x1="5238.09" y1="3004.86" x2="5487.72" y2="3031.1" stroke="#BFA85A" stroke-width="15"/>
<line x1="7.22825" y1="2551.62" x2="257.617" y2="2569.13" stroke="#BFA85A" stroke-width="15"/>
<line x1="5245.44" y1="2917.91" x2="5495.83" y2="2935.42" stroke="#BFA85A" stroke-width="15"/>
<line x1="1.94143" y1="2647.5" x2="252.788" y2="2656.26" stroke="#BFA85A" stroke-width="15"/>
<line x1="5249.74" y1="2830.76" x2="5500.59" y2="2839.52" stroke="#BFA85A" stroke-width="15"/>
<line x1="0.00390665" y1="2743.5" x2="251.004" y2="2743.5" stroke="#BFA85A" stroke-width="15"/>
<line x1="5251" y1="2743.5" x2="5502" y2="2743.5" stroke="#BFA85A" stroke-width="15"/>
<line x1="1.41794" y1="2839.51" x2="252.265" y2="2830.76" stroke="#BFA85A" stroke-width="15"/>
<line x1="5249.22" y1="2656.26" x2="5500.06" y2="2647.5" stroke="#BFA85A" stroke-width="15"/>
<line x1="6.18191" y1="2935.42" x2="256.57" y2="2917.91" stroke="#BFA85A" stroke-width="15"/>
<line x1="5244.39" y1="2569.13" x2="5494.78" y2="2551.62" stroke="#BFA85A" stroke-width="15"/>
<line x1="14.2903" y1="3031.1" x2="263.915" y2="3004.87" stroke="#BFA85A" stroke-width="15"/>
<line x1="5236.52" y1="2482.22" x2="5486.15" y2="2455.99" stroke="#BFA85A" stroke-width="15"/>
<line x1="25.7316" y1="3126.44" x2="274.289" y2="3091.51" stroke="#BFA85A" stroke-width="15"/>
<line x1="5225.63" y1="2395.64" x2="5474.19" y2="2360.71" stroke="#BFA85A" stroke-width="15"/>
<line x1="40.4945" y1="3221.32" x2="287.681" y2="3177.74" stroke="#BFA85A" stroke-width="15"/>
<line x1="5211.72" y1="2309.5" x2="5458.91" y2="2265.91" stroke="#BFA85A" stroke-width="15"/>
<line x1="58.5598" y1="3315.63" x2="304.075" y2="3263.45" stroke="#BFA85A" stroke-width="15"/>
<line x1="5194.81" y1="2223.89" x2="5440.33" y2="2171.7" stroke="#BFA85A" stroke-width="15"/>
<line x1="79.9043" y1="3409.25" x2="323.449" y2="3348.53" stroke="#BFA85A" stroke-width="15"/>
<line x1="5174.93" y1="2138.92" x2="5418.47" y2="2078.2" stroke="#BFA85A" stroke-width="15"/>
<line x1="104.505" y1="3502.07" x2="345.782" y2="3432.89" stroke="#BFA85A" stroke-width="15"/>
<line x1="5152.09" y1="2054.7" x2="5393.37" y2="1985.51" stroke="#BFA85A" stroke-width="15"/>
<line x1="132.329" y1="3593.97" x2="371.044" y2="3516.41" stroke="#BFA85A" stroke-width="15"/>
<line x1="5126.33" y1="1971.33" x2="5365.04" y2="1893.76" stroke="#BFA85A" stroke-width="15"/>
<line x1="163.343" y1="3684.85" x2="399.206" y2="3599.01" stroke="#BFA85A" stroke-width="15"/>
<line x1="5097.67" y1="1888.91" x2="5333.53" y2="1803.06" stroke="#BFA85A" stroke-width="15"/>
<line x1="197.513" y1="3774.59" x2="430.236" y2="3680.56" stroke="#BFA85A" stroke-width="15"/>
<line x1="5066.15" y1="1807.53" x2="5298.88" y2="1713.5" stroke="#BFA85A" stroke-width="15"/>
<line x1="234.791" y1="3863.08" x2="464.091" y2="3760.99" stroke="#BFA85A" stroke-width="15"/>
<line x1="5031.82" y1="1727.31" x2="5261.12" y2="1625.22" stroke="#BFA85A" stroke-width="15"/>
<line x1="275.134" y1="3950.22" x2="500.731" y2="3840.19" stroke="#BFA85A" stroke-width="15"/>
<line x1="4994.7" y1="1648.33" x2="5220.3" y2="1538.3" stroke="#BFA85A" stroke-width="15"/>
<line x1="318.495" y1="4035.89" x2="540.114" y2="3918.06" stroke="#BFA85A" stroke-width="15"/>
<line x1="4954.85" y1="1570.7" x2="5176.47" y2="1452.86" stroke="#BFA85A" stroke-width="15"/>
<line x1="364.818" y1="4120" x2="582.191" y2="3994.5" stroke="#BFA85A" stroke-width="15"/>
<line x1="4912.32" y1="1494.51" x2="5129.69" y2="1369.01" stroke="#BFA85A" stroke-width="15"/>
<line x1="414.049" y1="4202.45" x2="626.909" y2="4069.44" stroke="#BFA85A" stroke-width="15"/>
<line x1="4867.15" y1="1419.84" x2="5080.01" y2="1286.83" stroke="#BFA85A" stroke-width="15"/>
<line x1="466.128" y1="4283.12" x2="674.217" y2="4142.76" stroke="#BFA85A" stroke-width="15"/>
<line x1="4819.4" y1="1346.8" x2="5027.49" y2="1206.44" stroke="#BFA85A" stroke-width="15"/>
<line x1="520.991" y1="4361.93" x2="724.054" y2="4214.4" stroke="#BFA85A" stroke-width="15"/>
<line x1="4769.14" y1="1275.47" x2="4972.2" y2="1127.94" stroke="#BFA85A" stroke-width="15"/>
<line x1="275.138" y1="3950.22" x2="500.735" y2="3840.19" stroke="#BFA85A" stroke-width="15"/>
<line x1="4994.7" y1="1648.34" x2="5220.3" y2="1538.3" stroke="#BFA85A" stroke-width="15"/>
<line x1="318.498" y1="4035.9" x2="540.117" y2="3918.06" stroke="#BFA85A" stroke-width="15"/>
<line x1="4954.86" y1="1570.7" x2="5176.48" y2="1452.87" stroke="#BFA85A" stroke-width="15"/>
<line x1="364.821" y1="4120.01" x2="582.194" y2="3994.51" stroke="#BFA85A" stroke-width="15"/>
<line x1="4912.32" y1="1494.51" x2="5129.69" y2="1369.01" stroke="#BFA85A" stroke-width="15"/>
<line x1="414.052" y1="4202.45" x2="626.912" y2="4069.44" stroke="#BFA85A" stroke-width="15"/>
<line x1="4867.15" y1="1419.85" x2="5080.01" y2="1286.84" stroke="#BFA85A" stroke-width="15"/>
<line x1="466.13" y1="4283.13" x2="674.219" y2="4142.77" stroke="#BFA85A" stroke-width="15"/>
<line x1="4819.41" y1="1346.8" x2="5027.5" y2="1206.45" stroke="#BFA85A" stroke-width="15"/>
<line x1="520.992" y1="4361.93" x2="724.055" y2="4214.4" stroke="#BFA85A" stroke-width="15"/>
<line x1="4769.14" y1="1275.47" x2="4972.2" y2="1127.94" stroke="#BFA85A" stroke-width="15"/>
<line x1="578.572" y1="4438.78" x2="776.363" y2="4284.25" stroke="#BFA85A" stroke-width="15"/>
<line x1="4716.42" y1="1205.94" x2="4914.21" y2="1051.41" stroke="#BFA85A" stroke-width="15"/>
<line x1="638.798" y1="4513.57" x2="831.075" y2="4352.23" stroke="#BFA85A" stroke-width="15"/>
<line x1="4661.3" y1="1138.29" x2="4853.57" y2="976.951" stroke="#BFA85A" stroke-width="15"/>
<line x1="701.598" y1="4586.21" x2="888.127" y2="4418.26" stroke="#BFA85A" stroke-width="15"/>
<line x1="4603.85" y1="1072.6" x2="4790.38" y2="904.652" stroke="#BFA85A" stroke-width="15"/>
<line x1="766.894" y1="4656.61" x2="947.448" y2="4482.25" stroke="#BFA85A" stroke-width="15"/>
<line x1="4544.15" y1="1008.96" x2="4724.7" y2="834.604" stroke="#BFA85A" stroke-width="15"/>
<line x1="834.607" y1="4724.7" x2="1008.97" y2="4544.14" stroke="#BFA85A" stroke-width="15"/>
<line x1="4482.26" y1="947.444" x2="4656.62" y2="766.889" stroke="#BFA85A" stroke-width="15"/>
<line x1="904.655" y1="4790.38" x2="1072.61" y2="4603.85" stroke="#BFA85A" stroke-width="15"/>
<line x1="4418.26" y1="888.123" x2="4586.21" y2="701.593" stroke="#BFA85A" stroke-width="15"/>
<line x1="976.953" y1="4853.57" x2="1138.29" y2="4661.29" stroke="#BFA85A" stroke-width="15"/>
<line x1="4352.23" y1="831.072" x2="4513.57" y2="638.795" stroke="#BFA85A" stroke-width="15"/>
<line x1="1051.41" y1="4914.2" x2="1205.94" y2="4716.41" stroke="#BFA85A" stroke-width="15"/>
<line x1="4284.25" y1="776.358" x2="4438.78" y2="578.568" stroke="#BFA85A" stroke-width="15"/>
<line x1="1127.94" y1="4972.2" x2="1275.48" y2="4769.14" stroke="#BFA85A" stroke-width="15"/>
<line x1="4214.4" y1="724.053" x2="4361.94" y2="520.989" stroke="#BFA85A" stroke-width="15"/>
<line x1="1206.45" y1="5027.49" x2="1346.81" y2="4819.4" stroke="#BFA85A" stroke-width="15"/>
<line x1="4142.77" y1="674.217" x2="4283.13" y2="466.128" stroke="#BFA85A" stroke-width="15"/>
<line x1="1286.84" y1="5080.01" x2="1419.85" y2="4867.15" stroke="#BFA85A" stroke-width="15"/>
<line x1="4069.45" y1="626.91" x2="4202.46" y2="414.05" stroke="#BFA85A" stroke-width="15"/>
<line x1="1369.01" y1="5129.69" x2="1494.51" y2="4912.32" stroke="#BFA85A" stroke-width="15"/>
<line x1="3994.51" y1="582.191" x2="4120.01" y2="364.819" stroke="#BFA85A" stroke-width="15"/>
<line x1="1452.87" y1="5176.47" x2="1570.71" y2="4954.85" stroke="#BFA85A" stroke-width="15"/>
<line x1="3918.06" y1="540.114" x2="4035.9" y2="318.494" stroke="#BFA85A" stroke-width="15"/>
<line x1="1538.31" y1="5220.3" x2="1648.34" y2="4994.7" stroke="#BFA85A" stroke-width="15"/>
<line x1="3840.19" y1="500.732" x2="3950.22" y2="275.134" stroke="#BFA85A" stroke-width="15"/>
<line x1="1625.22" y1="5261.12" x2="1727.31" y2="5031.82" stroke="#BFA85A" stroke-width="15"/>
<line x1="3761" y1="464.09" x2="3863.09" y2="234.79" stroke="#BFA85A" stroke-width="15"/>
<line x1="1713.51" y1="5298.88" x2="1807.54" y2="5066.15" stroke="#BFA85A" stroke-width="15"/>
<line x1="3680.57" y1="430.235" x2="3774.59" y2="197.511" stroke="#BFA85A" stroke-width="15"/>
<line x1="1803.06" y1="5333.53" x2="1888.91" y2="5097.67" stroke="#BFA85A" stroke-width="15"/>
<line x1="3599.01" y1="399.208" x2="3684.86" y2="163.345" stroke="#BFA85A" stroke-width="15"/>
<line x1="1893.77" y1="5365.04" x2="1971.33" y2="5126.33" stroke="#BFA85A" stroke-width="15"/>
<line x1="3516.42" y1="371.047" x2="3593.98" y2="132.331" stroke="#BFA85A" stroke-width="15"/>
<line x1="1985.52" y1="5393.37" x2="2054.7" y2="5152.09" stroke="#BFA85A" stroke-width="15"/>
<line x1="3432.89" y1="345.78" x2="3502.07" y2="104.504" stroke="#BFA85A" stroke-width="15"/>
<line x1="2078.2" y1="5418.47" x2="2138.92" y2="5174.93" stroke="#BFA85A" stroke-width="15"/>
<line x1="3348.53" y1="323.448" x2="3409.26" y2="79.9037" stroke="#BFA85A" stroke-width="15"/>
<line x1="2171.7" y1="5440.33" x2="2223.89" y2="5194.81" stroke="#BFA85A" stroke-width="15"/>
<line x1="3263.45" y1="304.073" x2="3315.63" y2="58.5578" stroke="#BFA85A" stroke-width="15"/>
<line x1="2265.91" y1="5458.9" x2="2309.5" y2="5211.72" stroke="#BFA85A" stroke-width="15"/>
<line x1="3177.74" y1="287.68" x2="3221.32" y2="40.4931" stroke="#BFA85A" stroke-width="15"/>
<line x1="2360.71" y1="5474.18" x2="2395.65" y2="5225.63" stroke="#BFA85A" stroke-width="15"/>
<line x1="3091.51" y1="274.288" x2="3126.44" y2="25.7305" stroke="#BFA85A" stroke-width="15"/>
<line x1="2455.99" y1="5486.15" x2="2482.22" y2="5236.52" stroke="#BFA85A" stroke-width="15"/>
<line x1="3004.87" y1="263.913" x2="3031.1" y2="14.2878" stroke="#BFA85A" stroke-width="15"/>
<line x1="2551.62" y1="5494.78" x2="2569.13" y2="5244.39" stroke="#BFA85A" stroke-width="15"/>
<line x1="2917.91" y1="256.569" x2="2935.42" y2="6.17996" stroke="#BFA85A" stroke-width="15"/>
<line x1="2647.5" y1="5500.06" x2="2656.26" y2="5249.22" stroke="#BFA85A" stroke-width="15"/>
<line x1="2830.76" y1="252.263" x2="2839.52" y2="1.41634" stroke="#BFA85A" stroke-width="15"/>
</svg>
