<svg width="32768" height="32768" viewBox="0 0 32768 32768" fill="none" xmlns="http://www.w3.org/2000/svg">
<circle cx="16383.8" cy="16383.8" r="14874" stroke="#BFA85A" stroke-width="30"/>
<path d="M3966.73 10495C3966.73 10495 3062.9 12668.4 2903.67 15429.6C2744.44 18190.9 3373.12 20788.7 3373.12 20788.7" stroke="#BFA85A" stroke-width="30"/>
<line y1="-15" x2="3591.91" y2="-15" transform="matrix(0.323758 -0.0505242 0.0854316 0.316344 2774.24 10794.9)" stroke="#BFA85A" stroke-width="30"/>
<line y1="-15" x2="3591.91" y2="-15" transform="matrix(-0.315804 -0.087406 -0.12123 0.304426 3301.84 20802.6)" stroke="#BFA85A" stroke-width="30"/>
<path d="M13891.8 2847.65C13891.8 2847.65 11597.7 3374.31 9257.52 4848.56C6917.35 6322.81 5167.88 8343.51 5167.88 8343.51" stroke="#BFA85A" stroke-width="30"/>
<line y1="-15" x2="3591.91" y2="-15" transform="matrix(0.229182 0.234195 -0.207884 0.253291 12955.1 2051.09)" stroke="#BFA85A" stroke-width="30"/>
<line y1="-15" x2="3591.91" y2="-15" transform="matrix(-0.112286 -0.307838 -0.318222 0.0781439 5115.11 8293.59)" stroke="#BFA85A" stroke-width="30"/>
<path d="M18901.3 2847.65C18901.3 2847.65 21195.4 3374.31 23535.6 4848.56C25875.7 6322.81 27625.2 8343.51 27625.2 8343.51" stroke="#BFA85A" stroke-width="30"/>
<line y1="-15" x2="3591.91" y2="-15" transform="matrix(-0.229182 0.234195 0.207884 0.253291 19838 2051.09)" stroke="#BFA85A" stroke-width="30"/>
<line y1="-15" x2="3591.91" y2="-15" transform="matrix(0.112286 -0.307838 0.318222 0.0781439 27678 8293.59)" stroke="#BFA85A" stroke-width="30"/>
<path d="M13891.8 29868.9C13891.8 29868.9 11597.7 29342.3 9257.52 27868C6917.35 26393.8 5167.88 24373.1 5167.88 24373.1" stroke="#BFA85A" stroke-width="30"/>
<line y1="-15" x2="3591.91" y2="-15" transform="matrix(0.229182 -0.234195 -0.207884 -0.253291 12955.1 30665.5)" stroke="#BFA85A" stroke-width="30"/>
<line y1="-15" x2="3591.91" y2="-15" transform="matrix(-0.112286 0.307838 -0.318222 -0.0781439 5115.11 24423)" stroke="#BFA85A" stroke-width="30"/>
<path d="M18901.3 29868.9C18901.3 29868.9 21195.4 29342.3 23535.6 27868C25875.7 26393.8 27625.2 24373.1 27625.2 24373.1" stroke="#BFA85A" stroke-width="30"/>
<line y1="-15" x2="3591.91" y2="-15" transform="matrix(-0.229182 -0.234195 0.207884 -0.253291 19838 30665.5)" stroke="#BFA85A" stroke-width="30"/>
<line y1="-15" x2="3591.91" y2="-15" transform="matrix(0.112286 0.307838 0.318222 -0.0781439 27678 24423)" stroke="#BFA85A" stroke-width="30"/>
<path d="M28847.7 10435.5C28847.7 10435.5 29751.6 12608.8 29910.8 15370.1C30070 18131.3 29441.3 20729.1 29441.3 20729.1" stroke="#BFA85A" stroke-width="30"/>
<line y1="-15" x2="3591.91" y2="-15" transform="matrix(-0.323758 -0.0505242 -0.0854316 0.316344 30040.2 10735.3)" stroke="#BFA85A" stroke-width="30"/>
<line y1="-15" x2="3591.91" y2="-15" transform="matrix(0.315804 -0.087406 0.12123 0.304426 29512.6 20743.1)" stroke="#BFA85A" stroke-width="30"/>
<line x1="16386.3" y1="5.26856e-08" x2="16386.3" y2="1494.85" stroke="#BFA85A" stroke-width="15"/>
<line x1="16386.3" y1="31272.8" x2="16386.3" y2="32767.7" stroke="#BFA85A" stroke-width="15"/>
<line x1="15814.5" y1="9.89621" x2="15866.7" y2="1503.84" stroke="#BFA85A" stroke-width="15"/>
<line x1="16905.9" y1="31263.7" x2="16958.1" y2="32757.6" stroke="#BFA85A" stroke-width="15"/>
<line x1="15243.4" y1="39.7373" x2="15347.7" y2="1530.95" stroke="#BFA85A" stroke-width="15"/>
<line x1="17424.9" y1="31236.4" x2="17529.2" y2="32727.6" stroke="#BFA85A" stroke-width="15"/>
<line x1="14673.7" y1="89.4965" x2="14830" y2="1576.16" stroke="#BFA85A" stroke-width="15"/>
<line x1="17942.6" y1="31191" x2="18098.9" y2="32677.7" stroke="#BFA85A" stroke-width="15"/>
<line x1="14106.1" y1="159.103" x2="14314.1" y2="1639.41" stroke="#BFA85A" stroke-width="15"/>
<line x1="18458.4" y1="31127.6" x2="18666.5" y2="32607.9" stroke="#BFA85A" stroke-width="15"/>
<line x1="13541.2" y1="248.48" x2="13800.8" y2="1720.62" stroke="#BFA85A" stroke-width="15"/>
<line x1="18971.7" y1="31046.2" x2="19231.3" y2="32518.3" stroke="#BFA85A" stroke-width="15"/>
<line x1="12979.9" y1="357.517" x2="13290.7" y2="1819.7" stroke="#BFA85A" stroke-width="15"/>
<line x1="19481.8" y1="30946.9" x2="19792.6" y2="32409.1" stroke="#BFA85A" stroke-width="15"/>
<line x1="12422.6" y1="486.078" x2="12784.2" y2="1936.53" stroke="#BFA85A" stroke-width="15"/>
<line x1="19988.2" y1="30830" x2="20349.8" y2="32280.4" stroke="#BFA85A" stroke-width="15"/>
<line x1="11870.2" y1="634.006" x2="12282.2" y2="2070.95" stroke="#BFA85A" stroke-width="15"/>
<line x1="20490.2" y1="30695.4" x2="20902.2" y2="32132.3" stroke="#BFA85A" stroke-width="15"/>
<line x1="11323.3" y1="801.122" x2="11785.2" y2="2222.81" stroke="#BFA85A" stroke-width="15"/>
<line x1="20987.1" y1="30543.3" x2="21449.1" y2="31965" stroke="#BFA85A" stroke-width="15"/>
<line x1="10782.5" y1="987.229" x2="11293.8" y2="2391.93" stroke="#BFA85A" stroke-width="15"/>
<line x1="21478.5" y1="30374.1" x2="21989.8" y2="31778.8" stroke="#BFA85A" stroke-width="15"/>
<line x1="10248.6" y1="1192.09" x2="10808.6" y2="2578.09" stroke="#BFA85A" stroke-width="15"/>
<line x1="21963.6" y1="30187.7" x2="22523.6" y2="31573.8" stroke="#BFA85A" stroke-width="15"/>
<line x1="9722.17" y1="1415.45" x2="10330.2" y2="2781.07" stroke="#BFA85A" stroke-width="15"/>
<line x1="22442" y1="29984.6" x2="23050" y2="31350.2" stroke="#BFA85A" stroke-width="15"/>
<line x1="9203.86" y1="1657.06" x2="9859.16" y2="3000.63" stroke="#BFA85A" stroke-width="15"/>
<line x1="22913" y1="29764.9" x2="23568.3" y2="31108.5" stroke="#BFA85A" stroke-width="15"/>
<line x1="8694.27" y1="1916.61" x2="9396.06" y2="3236.49" stroke="#BFA85A" stroke-width="15"/>
<line x1="23376" y1="29528.9" x2="24077.8" y2="30848.8" stroke="#BFA85A" stroke-width="15"/>
<line x1="8194.05" y1="2193.79" x2="8941.47" y2="3488.37" stroke="#BFA85A" stroke-width="15"/>
<line x1="23830.5" y1="29276.9" x2="24577.9" y2="30571.4" stroke="#BFA85A" stroke-width="15"/>
<line x1="7703.81" y1="2488.25" x2="8495.96" y2="3755.96" stroke="#BFA85A" stroke-width="15"/>
<line x1="24275.9" y1="29009.1" x2="25068" y2="30276.8" stroke="#BFA85A" stroke-width="15"/>
<line x1="7224.15" y1="2799.65" x2="8060.06" y2="4038.94" stroke="#BFA85A" stroke-width="15"/>
<line x1="24711.7" y1="28726" x2="25547.6" y2="29965.3" stroke="#BFA85A" stroke-width="15"/>
<line x1="6755.64" y1="3127.59" x2="7634.3" y2="4336.95" stroke="#BFA85A" stroke-width="15"/>
<line x1="25137.4" y1="28427.8" x2="26016" y2="29637.2" stroke="#BFA85A" stroke-width="15"/>
<line x1="6298.88" y1="3471.68" x2="7219.21" y2="4649.64" stroke="#BFA85A" stroke-width="15"/>
<line x1="25552.3" y1="28115" x2="26472.7" y2="29293" stroke="#BFA85A" stroke-width="15"/>
<line x1="5854.39" y1="3831.51" x2="6815.27" y2="4976.63" stroke="#BFA85A" stroke-width="15"/>
<line x1="25956.2" y1="27787.9" x2="26917" y2="28933" stroke="#BFA85A" stroke-width="15"/>
<line x1="5422.74" y1="4206.62" x2="6422.99" y2="5317.51" stroke="#BFA85A" stroke-width="15"/>
<line x1="26348.4" y1="27446.9" x2="27348.6" y2="28557.8" stroke="#BFA85A" stroke-width="15"/>
<line x1="5004.43" y1="4596.58" x2="6042.84" y2="5671.89" stroke="#BFA85A" stroke-width="15"/>
<line x1="26728.4" y1="27092.4" x2="27766.8" y2="28167.7" stroke="#BFA85A" stroke-width="15"/>
<line x1="4599.98" y1="5000.9" x2="5675.29" y2="6039.31" stroke="#BFA85A" stroke-width="15"/>
<line x1="27095.8" y1="26724.8" x2="28171.1" y2="27763.2" stroke="#BFA85A" stroke-width="15"/>
<line x1="4209.92" y1="5419.08" x2="5320.82" y2="6419.34" stroke="#BFA85A" stroke-width="15"/>
<line x1="27450.2" y1="26344.7" x2="28561.1" y2="27344.9" stroke="#BFA85A" stroke-width="15"/>
<line x1="3834.68" y1="5850.63" x2="4979.81" y2="6811.5" stroke="#BFA85A" stroke-width="15"/>
<line x1="27791.1" y1="25952.4" x2="28936.2" y2="26913.3" stroke="#BFA85A" stroke-width="15"/>
<line x1="3474.72" y1="6295" x2="4652.68" y2="7215.32" stroke="#BFA85A" stroke-width="15"/>
<line x1="28118" y1="25548.5" x2="29296" y2="26468.8" stroke="#BFA85A" stroke-width="15"/>
<line x1="3130.49" y1="6751.67" x2="4339.85" y2="7630.32" stroke="#BFA85A" stroke-width="15"/>
<line x1="28430.7" y1="25133.4" x2="29640.1" y2="26012" stroke="#BFA85A" stroke-width="15"/>
<line x1="2802.41" y1="7220.07" x2="4041.7" y2="8055.99" stroke="#BFA85A" stroke-width="15"/>
<line x1="28728.8" y1="24707.6" x2="29968" y2="25543.5" stroke="#BFA85A" stroke-width="15"/>
<line x1="2490.88" y1="7699.63" x2="3758.59" y2="8491.79" stroke="#BFA85A" stroke-width="15"/>
<line x1="29011.7" y1="24271.7" x2="30279.4" y2="25063.9" stroke="#BFA85A" stroke-width="15"/>
<line x1="2196.26" y1="8189.78" x2="3490.84" y2="8937.21" stroke="#BFA85A" stroke-width="15"/>
<line x1="29279.3" y1="23826.2" x2="30573.9" y2="24573.6" stroke="#BFA85A" stroke-width="15"/>
<line x1="1918.92" y1="8689.93" x2="3238.8" y2="9391.72" stroke="#BFA85A" stroke-width="15"/>
<line x1="29531.2" y1="23371.6" x2="30851.1" y2="24073.4" stroke="#BFA85A" stroke-width="15"/>
<line x1="1659.21" y1="9199.45" x2="3002.78" y2="9854.75" stroke="#BFA85A" stroke-width="15"/>
<line x1="29767" y1="22908.6" x2="31110.6" y2="23563.9" stroke="#BFA85A" stroke-width="15"/>
<line x1="1417.45" y1="9717.71" x2="2783.07" y2="10325.7" stroke="#BFA85A" stroke-width="15"/>
<line x1="29986.6" y1="22437.5" x2="31352.2" y2="23045.5" stroke="#BFA85A" stroke-width="15"/>
<line x1="1193.92" y1="10244.1" x2="2579.93" y2="10804.1" stroke="#BFA85A" stroke-width="15"/>
<line x1="30189.6" y1="21959.1" x2="31575.6" y2="22519.1" stroke="#BFA85A" stroke-width="15"/>
<line x1="988.897" y1="10777.9" x2="2393.6" y2="11289.2" stroke="#BFA85A" stroke-width="15"/>
<line x1="30375.7" y1="21473.9" x2="31780.4" y2="21985.2" stroke="#BFA85A" stroke-width="15"/>
<line x1="802.634" y1="11318.6" x2="2224.32" y2="11780.6" stroke="#BFA85A" stroke-width="15"/>
<line x1="30544.9" y1="20982.5" x2="31966.6" y2="21444.4" stroke="#BFA85A" stroke-width="15"/>
<line x1="635.354" y1="11865.5" x2="2072.3" y2="12277.5" stroke="#BFA85A" stroke-width="15"/>
<line x1="30696.7" y1="20485.5" x2="32133.7" y2="20897.5" stroke="#BFA85A" stroke-width="15"/>
<line x1="487.267" y1="12417.9" x2="1937.72" y2="12779.5" stroke="#BFA85A" stroke-width="15"/>
<line x1="30831.1" y1="19983.4" x2="32281.6" y2="20345.1" stroke="#BFA85A" stroke-width="15"/>
<line x1="358.534" y1="12975.1" x2="1820.72" y2="13285.9" stroke="#BFA85A" stroke-width="15"/>
<line x1="30948" y1="19477.1" x2="32410.2" y2="19787.8" stroke="#BFA85A" stroke-width="15"/>
<line x1="249.329" y1="13536.4" x2="1721.47" y2="13796" stroke="#BFA85A" stroke-width="15"/>
<line x1="31047.1" y1="18966.9" x2="32519.2" y2="19226.5" stroke="#BFA85A" stroke-width="15"/>
<line x1="159.781" y1="14101.2" x2="1640.09" y2="14309.3" stroke="#BFA85A" stroke-width="15"/>
<line x1="31128.3" y1="18453.6" x2="32608.6" y2="18661.6" stroke="#BFA85A" stroke-width="15"/>
<line x1="90.0083" y1="14668.8" x2="1576.67" y2="14825.1" stroke="#BFA85A" stroke-width="15"/>
<line x1="31191.5" y1="17937.7" x2="32678.2" y2="18094" stroke="#BFA85A" stroke-width="15"/>
<line x1="40.0814" y1="15238.5" x2="1531.29" y2="15342.8" stroke="#BFA85A" stroke-width="15"/>
<line x1="31236.7" y1="17420" x2="32727.9" y2="17524.3" stroke="#BFA85A" stroke-width="15"/>
<line x1="10.0671" y1="15809.6" x2="1504.01" y2="15861.8" stroke="#BFA85A" stroke-width="15"/>
<line x1="31263.8" y1="16901" x2="32757.8" y2="16953.2" stroke="#BFA85A" stroke-width="15"/>
<line x1="6.859e-08" y1="16381.4" x2="1494.85" y2="16381.4" stroke="#BFA85A" stroke-width="15"/>
<line x1="31272.8" y1="16381.4" x2="32767.7" y2="16381.4" stroke="#BFA85A" stroke-width="15"/>
<line x1="9.89557" y1="16953.2" x2="1503.84" y2="16901" stroke="#BFA85A" stroke-width="15"/>
<line x1="31263.7" y1="15861.8" x2="32757.6" y2="15809.6" stroke="#BFA85A" stroke-width="15"/>
<line x1="39.7386" y1="17524.3" x2="1530.95" y2="17420" stroke="#BFA85A" stroke-width="15"/>
<line x1="31236.4" y1="15342.8" x2="32727.6" y2="15238.5" stroke="#BFA85A" stroke-width="15"/>
<line x1="89.4945" y1="18094" x2="1576.16" y2="17937.7" stroke="#BFA85A" stroke-width="15"/>
<line x1="31191" y1="14825.1" x2="32677.7" y2="14668.8" stroke="#BFA85A" stroke-width="15"/>
<line x1="159.097" y1="18661.6" x2="1639.4" y2="18453.6" stroke="#BFA85A" stroke-width="15"/>
<line x1="31127.6" y1="14309.3" x2="32607.9" y2="14101.2" stroke="#BFA85A" stroke-width="15"/>
<line x1="248.476" y1="19226.5" x2="1720.62" y2="18966.9" stroke="#BFA85A" stroke-width="15"/>
<line x1="31046.2" y1="13796" x2="32518.3" y2="13536.4" stroke="#BFA85A" stroke-width="15"/>
<line x1="357.512" y1="19787.8" x2="1819.7" y2="19477" stroke="#BFA85A" stroke-width="15"/>
<line x1="30946.9" y1="13285.9" x2="32409.1" y2="12975.1" stroke="#BFA85A" stroke-width="15"/>
<line x1="486.066" y1="20345.1" x2="1936.52" y2="19983.4" stroke="#BFA85A" stroke-width="15"/>
<line x1="30830" y1="12779.5" x2="32280.4" y2="12417.9" stroke="#BFA85A" stroke-width="15"/>
<line x1="633.999" y1="20897.5" x2="2070.94" y2="20485.4" stroke="#BFA85A" stroke-width="15"/>
<line x1="30695.4" y1="12277.5" x2="32132.3" y2="11865.5" stroke="#BFA85A" stroke-width="15"/>
<line x1="801.115" y1="21444.4" x2="2222.81" y2="20982.5" stroke="#BFA85A" stroke-width="15"/>
<line x1="30543.3" y1="11780.6" x2="31965" y2="11318.6" stroke="#BFA85A" stroke-width="15"/>
<line x1="987.216" y1="21985.2" x2="2391.92" y2="21473.9" stroke="#BFA85A" stroke-width="15"/>
<line x1="30374.1" y1="11289.2" x2="31778.8" y2="10777.9" stroke="#BFA85A" stroke-width="15"/>
<line x1="1192.09" y1="22519.1" x2="2578.1" y2="21959.1" stroke="#BFA85A" stroke-width="15"/>
<line x1="30187.8" y1="10804.1" x2="31573.8" y2="10244.1" stroke="#BFA85A" stroke-width="15"/>
<line x1="1415.46" y1="23045.5" x2="2781.08" y2="22437.5" stroke="#BFA85A" stroke-width="15"/>
<line x1="29984.6" y1="10325.7" x2="31350.2" y2="9717.7" stroke="#BFA85A" stroke-width="15"/>
<line x1="1657.07" y1="23563.8" x2="3000.63" y2="22908.5" stroke="#BFA85A" stroke-width="15"/>
<line x1="29764.9" y1="9854.73" x2="31108.5" y2="9199.43" stroke="#BFA85A" stroke-width="15"/>
<line x1="1916.62" y1="24073.4" x2="3236.49" y2="23371.6" stroke="#BFA85A" stroke-width="15"/>
<line x1="29528.9" y1="9391.72" x2="30848.8" y2="8689.92" stroke="#BFA85A" stroke-width="15"/>
<line x1="2193.79" y1="24573.6" x2="3488.37" y2="23826.2" stroke="#BFA85A" stroke-width="15"/>
<line x1="29276.8" y1="8937.22" x2="30571.4" y2="8189.79" stroke="#BFA85A" stroke-width="15"/>
<line x1="2488.25" y1="25063.9" x2="3755.96" y2="24271.7" stroke="#BFA85A" stroke-width="15"/>
<line x1="29009.1" y1="8491.79" x2="30276.8" y2="7699.64" stroke="#BFA85A" stroke-width="15"/>
<line x1="2799.65" y1="25543.5" x2="4038.94" y2="24707.6" stroke="#BFA85A" stroke-width="15"/>
<line x1="28726" y1="8055.99" x2="29965.3" y2="7220.08" stroke="#BFA85A" stroke-width="15"/>
<line x1="3127.59" y1="26012" x2="4336.95" y2="25133.4" stroke="#BFA85A" stroke-width="15"/>
<line x1="28427.8" y1="7630.34" x2="29637.2" y2="6751.69" stroke="#BFA85A" stroke-width="15"/>
<line x1="1657.09" y1="23563.9" x2="3000.65" y2="22908.6" stroke="#BFA85A" stroke-width="15"/>
<line x1="29764.9" y1="9854.76" x2="31108.5" y2="9199.46" stroke="#BFA85A" stroke-width="15"/>
<line x1="1916.64" y1="24073.4" x2="3236.52" y2="23371.7" stroke="#BFA85A" stroke-width="15"/>
<line x1="29528.9" y1="9391.74" x2="30848.8" y2="8689.95" stroke="#BFA85A" stroke-width="15"/>
<line x1="2193.8" y1="24573.7" x2="3488.38" y2="23826.2" stroke="#BFA85A" stroke-width="15"/>
<line x1="29276.9" y1="8937.24" x2="30571.4" y2="8189.81" stroke="#BFA85A" stroke-width="15"/>
<line x1="2488.28" y1="25063.9" x2="3755.98" y2="24271.7" stroke="#BFA85A" stroke-width="15"/>
<line x1="29009.1" y1="8491.82" x2="30276.8" y2="7699.67" stroke="#BFA85A" stroke-width="15"/>
<line x1="2799.66" y1="25543.6" x2="4038.95" y2="24707.6" stroke="#BFA85A" stroke-width="15"/>
<line x1="28726" y1="8056.01" x2="29965.3" y2="7220.1" stroke="#BFA85A" stroke-width="15"/>
<line x1="3127.6" y1="26012" x2="4336.97" y2="25133.4" stroke="#BFA85A" stroke-width="15"/>
<line x1="28427.9" y1="7630.34" x2="29637.2" y2="6751.69" stroke="#BFA85A" stroke-width="15"/>
<line x1="3471.7" y1="26468.8" x2="4649.67" y2="25548.5" stroke="#BFA85A" stroke-width="15"/>
<line x1="28115" y1="7215.35" x2="29293" y2="6295.03" stroke="#BFA85A" stroke-width="15"/>
<line x1="3831.53" y1="26913.3" x2="4976.66" y2="25952.4" stroke="#BFA85A" stroke-width="15"/>
<line x1="27787.9" y1="6811.53" x2="28933" y2="5850.66" stroke="#BFA85A" stroke-width="15"/>
<line x1="4206.66" y1="27345" x2="5317.55" y2="26344.7" stroke="#BFA85A" stroke-width="15"/>
<line x1="27446.9" y1="6419.36" x2="28557.8" y2="5419.11" stroke="#BFA85A" stroke-width="15"/>
<line x1="4596.61" y1="27763.3" x2="5671.91" y2="26724.9" stroke="#BFA85A" stroke-width="15"/>
<line x1="27092.4" y1="6039.34" x2="28167.7" y2="5000.93" stroke="#BFA85A" stroke-width="15"/>
<line x1="5000.92" y1="28167.7" x2="6039.33" y2="27092.4" stroke="#BFA85A" stroke-width="15"/>
<line x1="26724.8" y1="5671.91" x2="27763.3" y2="4596.6" stroke="#BFA85A" stroke-width="15"/>
<line x1="5419.1" y1="28557.8" x2="6419.35" y2="27446.9" stroke="#BFA85A" stroke-width="15"/>
<line x1="26344.7" y1="5317.54" x2="27345" y2="4206.65" stroke="#BFA85A" stroke-width="15"/>
<line x1="5850.65" y1="28933" x2="6811.53" y2="27787.9" stroke="#BFA85A" stroke-width="15"/>
<line x1="25952.4" y1="4976.66" x2="26913.3" y2="3831.53" stroke="#BFA85A" stroke-width="15"/>
<line x1="6295.01" y1="29293" x2="7215.34" y2="28115" stroke="#BFA85A" stroke-width="15"/>
<line x1="25548.5" y1="4649.66" x2="26468.8" y2="3471.7" stroke="#BFA85A" stroke-width="15"/>
<line x1="6751.68" y1="29637.2" x2="7630.33" y2="28427.9" stroke="#BFA85A" stroke-width="15"/>
<line x1="25133.4" y1="4336.97" x2="26012" y2="3127.61" stroke="#BFA85A" stroke-width="15"/>
<line x1="7220.1" y1="29965.3" x2="8056.01" y2="28726" stroke="#BFA85A" stroke-width="15"/>
<line x1="24707.6" y1="4038.97" x2="25543.5" y2="2799.68" stroke="#BFA85A" stroke-width="15"/>
<line x1="7699.66" y1="30276.8" x2="8491.81" y2="29009.1" stroke="#BFA85A" stroke-width="15"/>
<line x1="24271.7" y1="3755.99" x2="25063.9" y2="2488.28" stroke="#BFA85A" stroke-width="15"/>
<line x1="8189.81" y1="30571.5" x2="8937.24" y2="29276.9" stroke="#BFA85A" stroke-width="15"/>
<line x1="23826.2" y1="3488.4" x2="24573.7" y2="2193.82" stroke="#BFA85A" stroke-width="15"/>
<line x1="8689.94" y1="30848.8" x2="9391.73" y2="29528.9" stroke="#BFA85A" stroke-width="15"/>
<line x1="23371.6" y1="3236.51" x2="24073.4" y2="1916.64" stroke="#BFA85A" stroke-width="15"/>
<line x1="9199.44" y1="31108.5" x2="9854.74" y2="29764.9" stroke="#BFA85A" stroke-width="15"/>
<line x1="22908.5" y1="3000.66" x2="23563.8" y2="1657.09" stroke="#BFA85A" stroke-width="15"/>
<line x1="9717.7" y1="31350.2" x2="10325.7" y2="29984.6" stroke="#BFA85A" stroke-width="15"/>
<line x1="22437.5" y1="2781.1" x2="23045.5" y2="1415.48" stroke="#BFA85A" stroke-width="15"/>
<line x1="10244.1" y1="31573.8" x2="10804.1" y2="30187.8" stroke="#BFA85A" stroke-width="15"/>
<line x1="21959.1" y1="2578.11" x2="22519.1" y2="1192.11" stroke="#BFA85A" stroke-width="15"/>
<line x1="10777.9" y1="31778.8" x2="11289.2" y2="30374.1" stroke="#BFA85A" stroke-width="15"/>
<line x1="21473.9" y1="2391.96" x2="21985.1" y2="987.255" stroke="#BFA85A" stroke-width="15"/>
<line x1="11318.6" y1="31965.1" x2="11780.6" y2="30543.4" stroke="#BFA85A" stroke-width="15"/>
<line x1="20982.5" y1="2222.85" x2="21444.4" y2="801.156" stroke="#BFA85A" stroke-width="15"/>
<line x1="11865.5" y1="32132.3" x2="12277.5" y2="30695.4" stroke="#BFA85A" stroke-width="15"/>
<line x1="20485.4" y1="2070.96" x2="20897.5" y2="634.016" stroke="#BFA85A" stroke-width="15"/>
<line x1="12417.9" y1="32280.4" x2="12779.5" y2="30830" stroke="#BFA85A" stroke-width="15"/>
<line x1="19983.4" y1="1936.54" x2="20345.1" y2="486.088" stroke="#BFA85A" stroke-width="15"/>
<line x1="12975" y1="32409.1" x2="13285.8" y2="30947" stroke="#BFA85A" stroke-width="15"/>
<line x1="19477" y1="1819.71" x2="19787.8" y2="357.525" stroke="#BFA85A" stroke-width="15"/>
<line x1="13536.4" y1="32518.4" x2="13796" y2="31046.2" stroke="#BFA85A" stroke-width="15"/>
<line x1="18966.9" y1="1720.63" x2="19226.4" y2="248.49" stroke="#BFA85A" stroke-width="15"/>
<line x1="14101.2" y1="32607.9" x2="14309.3" y2="31127.6" stroke="#BFA85A" stroke-width="15"/>
<line x1="18453.6" y1="1639.42" x2="18661.6" y2="159.118" stroke="#BFA85A" stroke-width="15"/>
<line x1="14668.8" y1="32677.7" x2="14825.1" y2="31191" stroke="#BFA85A" stroke-width="15"/>
<line x1="17937.7" y1="1576.17" x2="18094" y2="89.5077" stroke="#BFA85A" stroke-width="15"/>
<line x1="15238.5" y1="32727.6" x2="15342.8" y2="31236.4" stroke="#BFA85A" stroke-width="15"/>
<line x1="17420" y1="1530.96" x2="17524.3" y2="39.7506" stroke="#BFA85A" stroke-width="15"/>
<line x1="15809.6" y1="32757.6" x2="15861.8" y2="31263.7" stroke="#BFA85A" stroke-width="15"/>
<line x1="16901" y1="1503.85" x2="16953.2" y2="9.90853" stroke="#BFA85A" stroke-width="15"/>
</svg>
