<svg width="3061" height="3030" viewBox="0 0 3061 3030" fill="none" xmlns="http://www.w3.org/2000/svg">
<path fill-rule="evenodd" clip-rule="evenodd" d="M1530.04 60C735.033 60 90.0364 711.138 90.0364 1515C90.0364 2318.86 735.033 2970 1530.04 2970C2325.04 2970 2970.04 2318.86 2970.04 1515C2970.04 711.138 2325.04 60 1530.04 60ZM30.0364 1515C30.0364 678.577 701.323 0 1530.04 0C2358.75 0 3030.04 678.577 3030.04 1515C3030.04 2351.42 2358.75 3030 1530.04 3030C701.323 3030 30.0364 2351.42 30.0364 1515ZM60.0365 29.9999L765.636 30V90L60.0371 89.9999L60.0371 742.8H0.0371094L0.0371399 30.0002L60.0365 30.0002V29.9999ZM60.0371 3000L765.636 3000V2940L60.0371 2940L60.0371 2287.2H0.0371094L0.0371399 3000H60.0365H60.0371ZM3000.03 3000L2294.44 3000L2294.44 2940L3000.03 2940L3000.03 2287.2H3060.03V3000H3000.03ZM3000.03 29.9999L2294.44 30L2294.44 90L3000.03 89.9999L3000.03 742.8H3060.03V30.0002L3000.03 30.0002L3000.03 29.9999Z" fill="#BFA85A"/>
</svg>
