<svg width="20724" height="726" viewBox="0 0 20724 726" fill="none" xmlns="http://www.w3.org/2000/svg">
<path fill-rule="evenodd" clip-rule="evenodd" d="M11095.1 17.6777L10935.8 177.001H20724V202.001H10910.8L10388 724.784L10373.1 709.838L10357.4 725.463L9833.97 202.001L0 202L2.18557e-06 177L9808.97 177.001L9650.32 18.3567L9668 0.679036L9844.32 177.001L10000 177.001V202.001L9869.32 202.001L9951 283.678H10091.6L10003.3 195.357L10021 177.679L10127 283.678H10304L10372.2 351.856L10441 283L10441.7 283.678H10617.2L10723.9 177.001L10724 177.125V177.001H10900.4L11077.4 0L11095.1 17.6777ZM10372.9 356.244L10357 372.066L10293.6 308.678H10152L10372.1 528.778L10592.2 308.678H10450.7L10388 371.389L10372.9 356.244ZM10734.2 202.001L10652.6 283.678H10793.8L10875.4 202.001H10734.2ZM10627.6 308.678L10388 548.232L10372.8 533.009L10356.9 548.91L10116.6 308.678H9976L10372.4 705.054L10768.8 308.678H10627.6Z" fill="#BFA85A"/>
</svg>
